<svg xmlns="http://www.w3.org/2000/svg" viewBox="0 0 40 40" id="timescaledb">
  <path fill="#fff" d="M20 40c11.046 0 20-8.954 20-20S31.046 0 20 0 0 8.954 0 20s8.954 20 20 20z"></path>
  <path fill="#fdb515" d="M20 33.382c7.56 0 13.688-6.004 13.688-13.41S27.56 6.562 20 6.562c-7.559 0-13.687 6.004-13.687 13.41S12.441 33.382 20 33.382z"></path>
  <path fill="#fff" d="M29.059 18.654c.823-1.961.224-4.06-1.338-4.689-1.562-.628-3.495.452-4.318 2.414-.822 1.961-.223 4.06 1.339 4.689 1.561.628 3.494-.452 4.317-2.414zm-9.026 17.941c2.168 0 3.925-1.863 3.925-4.161 0-2.299-1.757-4.162-3.925-4.162s-3.925 1.863-3.925 4.162c0 2.298 1.757 4.161 3.925 4.161zm-4.641-15.53c1.561-.628 2.16-2.727 1.338-4.688-.823-1.962-2.756-3.042-4.318-2.414s-2.16 2.728-1.338 4.689c.823 1.961 2.756 3.042 4.318 2.414z"></path>
  <path fill="#333" d="M26.958 32.873c4.235-2.223 7.24-6.408 7.74-11.317l2.37 2.667c-1.32 5.264-5.117 9.58-10.105 11.695.047-.42.071-.892.071-1.43a20.163 20.163 0 0 0-.076-1.615zm-11.732.953c1.493.495 3.086.76 4.75.76 1.736 0 3.396-.289 4.946-.826-.325 1.266-.83 2.373-1.474 3.242-1.12.22-2.28.336-3.467.336-1.116 0-2.204-.103-3.262-.294-.654-.864-1.164-1.967-1.493-3.218zm-2.15-.911c-4.303-2.223-7.35-6.464-7.832-11.439l-2.313 2.947c1.374 5.208 5.175 9.459 10.144 11.537-.047-.43-.071-.915-.071-1.467 0-.532.024-1.06.071-1.578zm18.78-21.462 1.679-2.354a17.588 17.588 0 0 0-4.197-3.606l-2.833 1.593a14.763 14.763 0 0 1 5.35 4.367zm-21.05-6.081a17.534 17.534 0 0 0-4.379 3.713l1.893 2.078a14.82 14.82 0 0 1 5.16-4.096l-2.675-1.695zm-.568 14.614c0-4.344 2.961-8.01 7.015-9.173.181-.5.41-.935.668-1.29-5.018.949-8.804 5.274-8.804 10.463 0 3.676 1.898 6.917 4.788 8.832.129-.364.267-.715.42-1.055-2.475-1.733-4.087-4.573-4.087-7.777z"></path>
  <path fill="#333" d="m12.159 16.791.825.21a7.572 7.572 0 0 1 3.787-3.816 9.81 9.81 0 0 1 .11-.943 8.45 8.45 0 0 0-4.722 4.55zm.297 4.377h-.849a8.282 8.282 0 0 0 3.3 5.45c.143-.242.291-.476.449-.7a7.472 7.472 0 0 1-2.9-4.75zm14.574-4.139.82-.21c-.983-2.34-3.024-4.147-5.542-4.843.062.29.115.593.153.91 2.06.682 3.72 2.2 4.569 4.143zm1.464 1.91-.887-.896-2.914.458-.448 1.312 1.34.878 2.46-.878.45-.873zm-16.868 0 .882-.896 2.919.458.443 1.312-1.34.878-2.456-.878-.448-.873zm16.454 3.564a8.26 8.26 0 0 0 .314-1.335h-.849c-.042.257-.1.504-.166.752.248.196.481.387.7.583zm-2.69 2.775c-.22.21-.449.416-.692.598.157.224.31.458.453.7a8.66 8.66 0 0 0 1.054-.938 15.063 15.063 0 0 1-.815-.36z"></path>
  <path fill="#333" d="M29.762 19.986a9.436 9.436 0 0 1-.686 3.527c.329.383.577.752.739 1.083a10.406 10.406 0 0 0 1.073-4.61c0-5.502-4.254-10.028-9.72-10.598.273.332.516.743.716 1.215 4.488.86 7.878 4.731 7.878 9.383zm-2.236 6.086a9.81 9.81 0 0 1-1.78 1.644c.153.336.297.691.42 1.055a10.915 10.915 0 0 0 2.642-2.522 5.115 5.115 0 0 1-1.282-.177zm-6.591-7.39c-.01 0-.015-.004-.02-.008L20 9.314h-.854l-.782 9.425h.005c0 .019-.005.037-.005.056.005.159.019.308.048.453.014.159.062.322.138.486.162.41.424.72.734.864.072.056.148.107.225.159.014.01.033.018.047.028v.004l9.5 5.115.496-.677-8.617-6.544zm1.211 12.813c-.739 0-1.364-.495-1.545-1.163l3.515-1.317-.84-2.046L20 28.267l-3.28-1.294-.835 2.042 3.48 1.345a1.595 1.595 0 0 1-1.683 1.125l-.71.977c.267.088.553.135.854.135.882 0 1.664-.411 2.16-1.05a2.737 2.737 0 0 0 3.104.882l-.696-.953a1.443 1.443 0 0 1-.248.019z"></path>
  <path fill="#333" d="m30.936 11.905-1.14 1.27a11.527 11.527 0 0 1 2.208 6.797c0 4.147-2.194 7.795-5.508 9.888.148.55.267 1.125.358 1.718 4.082-2.321 6.829-6.65 6.829-11.606.01-3.027-1.02-5.82-2.747-8.067zm-22.94 8.068c0-2.527.816-4.867 2.204-6.787l-1.14-1.27a13.16 13.16 0 0 0-2.747 8.056c0 4.989 2.78 9.342 6.91 11.65.091-.594.206-1.168.353-1.715-3.357-2.088-5.58-5.754-5.58-9.934zM20 6.563c-2.103 0-4.096.467-5.875 1.293l.84 1.439A12.144 12.144 0 0 1 20 8.21c1.793 0 3.496.388 5.027 1.08l.84-1.44A13.957 13.957 0 0 0 20 6.564z"></path>
</svg>
